<?xml version="1.0" encoding="UTF-8" standalone="no"?>
<!-- Created with Inkscape (http://www.inkscape.org/) -->

<svg
   xmlns:dc="http://purl.org/dc/elements/1.1/"
   xmlns:cc="http://creativecommons.org/ns#"
   xmlns:rdf="http://www.w3.org/1999/02/22-rdf-syntax-ns#"
   xmlns:svg="http://www.w3.org/2000/svg"
   xmlns="http://www.w3.org/2000/svg"
   xmlns:sodipodi="http://sodipodi.sourceforge.net/DTD/sodipodi-0.dtd"
   xmlns:inkscape="http://www.inkscape.org/namespaces/inkscape"
   width="75mm"
   height="75mm"
   viewBox="0 0 75 75"
   version="1.1"
   id="svg8"
   inkscape:version="0.92.4 5da689c313, 2019-01-14"
   sodipodi:docname="logo-editable.svg">
  <defs
     id="defs2" />
  <sodipodi:namedview
     id="base"
     pagecolor="#ffffff"
     bordercolor="#666666"
     borderopacity="1.0"
     inkscape:pageopacity="0.0"
     inkscape:pageshadow="2"
     inkscape:zoom="0.58796296"
     inkscape:cx="-212.82698"
     inkscape:cy="290.94498"
     inkscape:document-units="mm"
     inkscape:current-layer="layer1"
     showgrid="false"
     inkscape:window-width="1543"
     inkscape:window-height="845"
     inkscape:window-x="57"
     inkscape:window-y="27"
     inkscape:window-maximized="1"
     inkscape:snap-text-baseline="true" />
  <metadata
     id="metadata5">
    <rdf:RDF>
      <cc:Work
         rdf:about="">
        <dc:format>image/svg+xml</dc:format>
        <dc:type
           rdf:resource="http://purl.org/dc/dcmitype/StillImage" />
        <dc:title></dc:title>
      </cc:Work>
    </rdf:RDF>
  </metadata>
  <g
     inkscape:label="Layer 1"
     inkscape:groupmode="layer"
     id="layer1"
     transform="translate(0,-222)">
    <circle
       id="path3713"
       cx="37.5"
       cy="259.5"
       style="fill:#388e3c;fill-opacity:1;stroke:none;stroke-width:0.29330066;image-rendering:auto"
       r="37.5" />
    <g
       id="g4829"
       transform="matrix(3.75,0,0,3.75,-7.4624999,214.49999)"
       style="fill:#4caf50;fill-opacity:1;fill-rule:nonzero;stroke:none;stroke-opacity:1">
      <path
         id="path4815"
         d="m 11.99,2 c -5.52,0 -10,4.48 -10,10 0,5.52 4.48,10 10,10 5.52,0 10,-4.48 10,-10 0,-5.52 -4.48,-10 -10,-10 z m 3.61,6.34 c 1.07,0 1.93,0.86 1.93,1.93 0,1.07 -0.86,1.93 -1.93,1.93 -1.07,0 -1.93,-0.86 -1.93,-1.93 C 13.66,9.2 14.53,8.34 15.6,8.34 Z m -6,-1.58 c 1.3,0 2.36,1.06 2.36,2.36 0,1.3 -1.06,2.36 -2.36,2.36 -1.3,0 -2.36,-1.06 -2.36,-2.36 0,-1.31 1.05,-2.36 2.36,-2.36 z m 0,9.13 v 3.75 C 7.2,18.89 5.3,17.04 4.46,14.68 5.51,13.56 8.13,12.99 9.6,12.99 c 0.53,0 1.2,0.08 1.9,0.22 -1.64,0.87 -1.9,2.02 -1.9,2.68 z M 11.99,20 c -0.27,0 -0.53,-0.01 -0.79,-0.04 v -4.07 c 0,-1.42 2.94,-2.13 4.4,-2.13 1.07,0 2.92,0.39 3.84,1.15 C 18.27,17.88 15.38,20 11.99,20 Z"
         inkscape:connector-curvature="0"
         style="fill:#4caf50;fill-opacity:1;fill-rule:nonzero;stroke:none;stroke-opacity:1" />
    </g>
    <flowRoot
       xml:space="preserve"
       id="flowRoot4520"
       style="font-style:normal;font-variant:normal;font-weight:bold;font-stretch:normal;font-size:39.67113495px;line-height:1.25;font-family:sans-serif;-inkscape-font-specification:'sans-serif, Bold';font-variant-ligatures:normal;font-variant-caps:normal;font-variant-numeric:normal;font-feature-settings:normal;text-align:start;letter-spacing:0px;word-spacing:0px;writing-mode:lr-tb;text-anchor:start;fill:#000000;fill-opacity:1;stroke:none;image-rendering:auto"
       transform="matrix(0.49798313,0,0,0.49798313,-143.48524,-23.831599)"><flowRegion
         id="flowRegion4522"
         style="font-style:normal;font-variant:normal;font-weight:bold;font-stretch:normal;font-size:39.67113495px;font-family:sans-serif;-inkscape-font-specification:'sans-serif, Bold';font-variant-ligatures:normal;font-variant-caps:normal;font-variant-numeric:normal;font-feature-settings:normal;text-align:start;writing-mode:lr-tb;text-anchor:start"><rect
           id="rect4524"
           width="154.87955"
           height="65.61499"
           x="300.01532"
           y="574.00684"
           style="font-style:normal;font-variant:normal;font-weight:bold;font-stretch:normal;font-size:39.67113495px;font-family:sans-serif;-inkscape-font-specification:'sans-serif, Bold';font-variant-ligatures:normal;font-variant-caps:normal;font-variant-numeric:normal;font-feature-settings:normal;text-align:start;writing-mode:lr-tb;text-anchor:start" /></flowRegion><flowPara
         id="flowPara4526"
         style="font-style:normal;font-variant:normal;font-weight:bold;font-stretch:normal;font-size:39.67113495px;font-family:sans-serif;-inkscape-font-specification:'sans-serif, Bold';font-variant-ligatures:normal;font-variant-caps:normal;font-variant-numeric:normal;font-feature-settings:normal;text-align:start;writing-mode:lr-tb;text-anchor:start"><flowSpan
           style="font-style:normal;font-variant:normal;font-weight:bold;font-stretch:normal;font-size:39.67113495px;font-family:sans-serif;-inkscape-font-specification:'sans-serif, Bold';font-variant-ligatures:normal;font-variant-caps:normal;font-variant-numeric:normal;font-feature-settings:normal;text-align:start;writing-mode:lr-tb;text-anchor:start;fill:#b9f6ca;fill-opacity:1"
           id="flowSpan4528">U</flowSpan><flowSpan
           style="font-style:normal;font-variant:normal;font-weight:bold;font-stretch:normal;font-size:39.67113495px;font-family:sans-serif;-inkscape-font-specification:'sans-serif, Bold';font-variant-ligatures:normal;font-variant-caps:normal;font-variant-numeric:normal;font-feature-settings:normal;text-align:start;writing-mode:lr-tb;text-anchor:start;fill:#e8f5e9;fill-opacity:1"
           id="flowSpan4534">n</flowSpan><flowSpan
           style="font-style:normal;font-variant:normal;font-weight:bold;font-stretch:normal;font-size:39.67113495px;font-family:sans-serif;-inkscape-font-specification:'sans-serif, Bold';font-variant-ligatures:normal;font-variant-caps:normal;font-variant-numeric:normal;font-feature-settings:normal;text-align:start;writing-mode:lr-tb;text-anchor:start;fill:#b9f6ca;fill-opacity:1"
           id="flowSpan4530">Me</flowSpan></flowPara></flowRoot>  </g>
</svg>
